<svg xmlns="http://www.w3.org/2000/svg" xmlns:xlink="http://www.w3.org/1999/xlink" width="28.713" height="19.142" viewBox="0 0 28.713 19.142">
  <defs>
    <linearGradient id="linear-gradient" x1="0.5" x2="0.5" y2="1" gradientUnits="objectBoundingBox">
      <stop offset="0" stop-color="#5eb23b"/>
      <stop offset="0.661" stop-color="#0d6f78"/>
      <stop offset="1" stop-color="#0d6f78"/>
    </linearGradient>
  </defs>
  <path id="Icon_awesome-eye" data-name="Icon awesome-eye" d="M28.54,13.343A15.989,15.989,0,0,0,14.357,4.5,15.991,15.991,0,0,0,.173,13.344a1.613,1.613,0,0,0,0,1.455,15.989,15.989,0,0,0,14.183,8.843A15.991,15.991,0,0,0,28.54,14.8,1.613,1.613,0,0,0,28.54,13.343ZM14.357,21.249a7.178,7.178,0,1,1,7.178-7.178A7.178,7.178,0,0,1,14.357,21.249Zm0-11.964a4.751,4.751,0,0,0-1.262.189A2.385,2.385,0,0,1,9.76,12.809a4.775,4.775,0,1,0,4.6-3.524Z" transform="translate(0 -4.5)" fill="url(#linear-gradient)"/>
</svg>
