<svg xmlns="http://www.w3.org/2000/svg" xmlns:xlink="http://www.w3.org/1999/xlink" width="70" height="70" viewBox="0 0 70 70">
  <defs>
    <style>
      .cls-1 {
        fill: #fff;
      }

      .cls-2 {
        fill: url(#linear-gradient);
      }

      .cls-3 {
        filter: url(#Elipse_10);
      }
    </style>
    <filter id="Elipse_10" x="0" y="0" width="70" height="70" filterUnits="userSpaceOnUse">
      <feOffset dy="3" input="SourceAlpha"/>
      <feGaussianBlur stdDeviation="3" result="blur"/>
      <feFlood flood-opacity="0.161"/>
      <feComposite operator="in" in2="blur"/>
      <feComposite in="SourceGraphic"/>
    </filter>
    <linearGradient id="linear-gradient" x1="0.5" x2="0.5" y2="1" gradientUnits="objectBoundingBox">
      <stop offset="0" stop-color="#661470"/>
      <stop offset="0.022" stop-color="#76116d"/>
      <stop offset="0.075" stop-color="#980a69"/>
      <stop offset="0.129" stop-color="#b20665"/>
      <stop offset="0.184" stop-color="#c50263"/>
      <stop offset="0.241" stop-color="#d10061"/>
      <stop offset="0.302" stop-color="#d50061"/>
      <stop offset="0.661" stop-color="#e24722"/>
      <stop offset="1" stop-color="#d91820"/>
    </linearGradient>
  </defs>
  <g id="Close" transform="translate(9 6)">
    <g class="cls-3" transform="matrix(1, 0, 0, 1, -9, -6)">
      <circle id="Elipse_10-2" data-name="Elipse 10" class="cls-1" cx="26" cy="26" r="26" transform="translate(9 6)"/>
    </g>
    <g id="x" transform="translate(12.384 11.876)">
      <path id="Línea_4" data-name="Línea 4" class="cls-2" d="M24.627,26.45a1.817,1.817,0,0,1-1.289-.534l-24.3-24.3A1.823,1.823,0,1,1,1.612-.966l24.3,24.3a1.823,1.823,0,0,1-1.289,3.112Z" transform="translate(1.5 1.5)"/>
      <path id="Línea_5" data-name="Línea 5" class="cls-2" d="M.323,26.45A1.823,1.823,0,0,1-.966,23.338l24.3-24.3a1.823,1.823,0,0,1,2.578,2.578l-24.3,24.3A1.817,1.817,0,0,1,.323,26.45Z" transform="translate(1.5 1.5)"/>
    </g>
  </g>
</svg>
