<svg xmlns="http://www.w3.org/2000/svg" xmlns:xlink="http://www.w3.org/1999/xlink" width="193.275" height="214.886" viewBox="0 0 193.275 214.886">
  <defs>
    <style>
      .cls-1, .cls-10, .cls-11, .cls-13, .cls-14, .cls-15, .cls-16, .cls-2, .cls-3, .cls-4, .cls-5, .cls-6, .cls-7, .cls-8, .cls-9 {
        fill-rule: evenodd;
      }

      .cls-1 {
        fill: url(#linear-gradient);
      }

      .cls-2 {
        fill: url(#linear-gradient-2);
      }

      .cls-3 {
        fill: url(#linear-gradient-3);
      }

      .cls-4 {
        fill: url(#linear-gradient-4);
      }

      .cls-5 {
        fill: url(#linear-gradient-5);
      }

      .cls-6 {
        fill: url(#linear-gradient-6);
      }

      .cls-7 {
        fill: url(#linear-gradient-7);
      }

      .cls-8 {
        fill: url(#linear-gradient-8);
      }

      .cls-9 {
        fill: url(#linear-gradient-9);
      }

      .cls-10 {
        fill: url(#linear-gradient-10);
      }

      .cls-11 {
        fill: url(#linear-gradient-11);
      }

      .cls-12 {
        fill: #fff;
        font-size: 56px;
        font-family: Impact;
      }

      .cls-13 {
        fill: url(#linear-gradient-12);
      }

      .cls-14 {
        fill: url(#linear-gradient-13);
      }

      .cls-15 {
        fill: url(#linear-gradient-14);
      }

      .cls-16 {
        fill: url(#linear-gradient-16);
      }
    </style>
    <linearGradient id="linear-gradient" x1="-0.002" y1="0.497" x2="1.003" y2="0.497" gradientUnits="objectBoundingBox">
      <stop offset="0" stop-color="#812082"/>
      <stop offset="0" stop-color="#831f82"/>
      <stop offset="0.06" stop-color="#a5147c"/>
      <stop offset="0.12" stop-color="#c00b78"/>
      <stop offset="0.18" stop-color="#d30575"/>
      <stop offset="0.24" stop-color="#de0174"/>
      <stop offset="0.3" stop-color="#e20073"/>
      <stop offset="0.66" stop-color="#e95f32"/>
      <stop offset="1" stop-color="#e3312d"/>
    </linearGradient>
    <linearGradient id="linear-gradient-2" x1="-0.002" y1="0.503" x2="0.998" y2="0.503" xlink:href="#linear-gradient"/>
    <linearGradient id="linear-gradient-3" x1="0" y1="0.499" x2="1" y2="0.499" xlink:href="#linear-gradient"/>
    <linearGradient id="linear-gradient-4" x1="0" y1="0.5" x2="1" y2="0.5" xlink:href="#linear-gradient"/>
    <linearGradient id="linear-gradient-5" x1="0" y1="0.503" x2="1" y2="0.503" xlink:href="#linear-gradient"/>
    <linearGradient id="linear-gradient-6" x1="0" y1="0.497" x2="1" y2="0.497" xlink:href="#linear-gradient"/>
    <linearGradient id="linear-gradient-7" x1="-0.001" y1="0.498" x2="0.999" y2="0.498" xlink:href="#linear-gradient"/>
    <linearGradient id="linear-gradient-8" x1="0" y1="0.503" x2="1.004" y2="0.503" xlink:href="#linear-gradient"/>
    <linearGradient id="linear-gradient-9" x1="0" y1="0.5" x2="1" y2="0.5" xlink:href="#linear-gradient"/>
    <linearGradient id="linear-gradient-10" x1="0.005" y1="0.503" x2="1.006" y2="0.503" xlink:href="#linear-gradient"/>
    <linearGradient id="linear-gradient-11" x1="0" y1="0.5" x2="1" y2="0.5" xlink:href="#linear-gradient"/>
    <linearGradient id="linear-gradient-12" x1="0" y1="0.5" x2="1" y2="0.5" xlink:href="#linear-gradient"/>
    <linearGradient id="linear-gradient-13" x1="0" y1="0.5" x2="1.007" y2="0.5" xlink:href="#linear-gradient"/>
    <linearGradient id="linear-gradient-14" x1="0" y1="0.503" x2="1" y2="0.503" xlink:href="#linear-gradient"/>
    <linearGradient id="linear-gradient-16" x1="-0.006" y1="0.497" x2="0.99" y2="0.497" xlink:href="#linear-gradient"/>
  </defs>
  <g id="Grupo_38" data-name="Grupo 38" transform="translate(-1161.282 -831.829)">
    <path id="Trazado_8" data-name="Trazado 8" class="cls-1" d="M290.051,2.282c.685-3.261-4.939-2.818-3.141,0C288.656,2.094,288.87,2.819,290.051,2.282Z" transform="translate(953.477 831.83)"/>
    <path id="Trazado_9" data-name="Trazado 9" class="cls-2" d="M288.592,23.456c1.678.47,3.369.564,2.362,2.684,2.013-.456,3.959.859,5.516,1.973a9.274,9.274,0,0,1,6.711.778c.872-3.315,4.16-4.228,6.711-5.905-.671-1.892-.2-3.489,1.584-3.932.537-3.838-2.349-5.368-.792-9.059-4.026-.886-5.167-4.536-8.267-6.294a1.973,1.973,0,0,1-1.973,1.57c-1.06-.242-.98-1.637-2.362-1.57-.523,1.852-2.6,2.362-4.724,1.57a12.079,12.079,0,0,1-5.905,5.905c2.053,1.866-.174,4.671-1.181,5.905C287.008,19.752,288.914,20.316,288.592,23.456Z" transform="translate(953.379 833.095)"/>
    <path id="Trazado_10" data-name="Trazado 10" class="cls-3" d="M337.959,11.246a5.368,5.368,0,0,0,7.086-5.113c-3.167-.644-6.778,1.235-7.476,4.322C337.879,10.548,338.026,10.789,337.959,11.246Z" transform="translate(970.928 833.885)"/>
    <path id="Trazado_11" data-name="Trazado 11" class="cls-4" d="M350.1,35.356c2.375.913,3.02,3.543,5.516,4.335-3.154,1.181-5.8,2.872-5.905,7.086,8.536,4.228,9.046-10.133,18.105-7.865,1.812-4.134,6.133-7.771,3.543-12.992.5-.953,1.986-.913,1.973-2.376-.939-.228-2.859.5-3.154-.389.094-1.436.55-1.5,0-2.751-2.174,0-3.3-2.107-5.5-2.751s-4.832.349-6.308-1.584c-.711,1.517-2.375,1.906-4.322,1.181-.537,3.275-4.563,3.06-4.335,7.086a2.2,2.2,0,0,0-1.57.4c-.3,1.208,1.074.752.778,1.959s-1.946.939-1.959,2.362C349.3,29.867,349.4,32.927,350.1,35.356Z" transform="translate(974.139 837.328)"/>
    <path id="Trazado_12" data-name="Trazado 12" class="cls-5" d="M257.034,53.833c-2.241-.523-4.093-1.423-6.294-1.973C250.834,54.262,255.478,54.2,257.034,53.833Z" transform="translate(941.223 849.572)"/>
    <path id="Trazado_13" data-name="Trazado 13" class="cls-6" d="M368.66,77.962c1.087,1.409,4.322.805,4.335-1.181C372.1,74.768,368.606,75.721,368.66,77.962Z" transform="translate(981.563 857.721)"/>
    <path id="Trazado_14" data-name="Trazado 14" class="cls-7" d="M278.241,116.8c-1.691-.255-1.61,1.342-3.154,1.168-1.852-.631-2-2.98-2.684-4.724-1.611-.282-1.342,1.342-3.154.792-1.181-.537-1.637-1.772-2.362-2.684-3.61.711-4.416-1.342-6.308-2.362-.684.617-.805,1.812-1.959,1.959-3.771-1.557-4.214,3.382-8.267,1.584-1.342,4.483-4.778,7.033-9.851,6.711-.134,2.362,2.684,1.8,3.154,3.543.684,3.436-1.248,4.254-1.57,6.711a24.493,24.493,0,0,1,2.751,9.395c2.04,0,2.4,1.543,3.154,2.765,2.094-.268,3.449.228,3.932,1.57.43,2.134-.792,2.617-.792,4.335,1.866-.9,3.329-2.2,5.919-2.362,1.731,1.275,2.885,3.141,6.711,2.362a2.939,2.939,0,0,1,1.973-2.362c1.194.5,1.047,2.349,2.684,2.362,1.342-.792-.644-4.469,1.973-4.724,1.651-.081,1.221,1.933,3.154,1.57a7.449,7.449,0,0,0,0-4.335c2.577-1.6,3.154,1.946,4.724,1.181,0-1.691-1.973-1.449-1.973-3.141,1.8-2.429-.591-7.073,1.973-9.059,1.745-.872,7.422,1.194,9.838-.792C280.174,130.383,273.906,123.391,278.241,116.8Z" transform="translate(937.719 869.117)"/>
    <path id="Trazado_15" data-name="Trazado 15" class="cls-8" d="M334.64,126.482c1.96,2.859,5.073.886,9.395,1.584C342.975,125.515,337.673,125.878,334.64,126.482Z" transform="translate(969.926 874.951)"/>
    <path id="Trazado_20" data-name="Trazado 20" class="cls-9" d="M288.337,112c-2.993,1.866-7.086,4.724-8.267,7.086C282.955,116.858,286.378,115.154,288.337,112Z" transform="translate(951.258 870.146)"/>
    <path id="Trazado_22" data-name="Trazado 22" class="cls-10" d="M316.168,34.728c.832.228,1.678.282,1.181,1.342a3.623,3.623,0,0,1,2.684.993,4.6,4.6,0,0,1,3.342.389c.443-1.664,2.094-2.121,3.355-2.953-.336-.953-.107-1.745.778-1.973.268-1.919-1.168-2.684-.389-4.523-1.986-.443-2.577-2.268-4.134-3.154a.98.98,0,0,1-.98.792c-.537-.121-.5-.819-1.181-.792-.269.926-1.342,1.181-2.362.792a6.079,6.079,0,0,1-2.953,2.953c1.02.926-.094,2.335-.59,2.953C315.376,32.876,316.37,33.1,316.168,34.728Z" transform="translate(963.176 840.332)"/>
    <path id="Trazado_23" data-name="Trazado 23" class="cls-11" d="M414.124,140.937c.953-1.087,1.342-.872,1.691-2.188-1.731-1.342-1.342-3.691-2.684-5.556s-4.026-2.684-4.026-5.1c-1.49.765-3.047,0-4.147-1.718-2.429,2.268-5.476-.389-7.771,2.939a2.188,2.188,0,0,0-1.476-.644c-.98.765.389,1.248-.591,2.027s-2.107-.456-2.993.671c.886,1.342.416,2.9-.282,4.469-.966-4.818-3.476-8.173-1.262-14.146a12.629,12.629,0,0,1-4.523-2.228l.43-.134c1.584-6.482-4.765-8.294-10.307-10.388-.376-.309-.778-.6-1.194-.886a1.152,1.152,0,0,1-.121.362c-3.194-1.342-5.838-2.818-6.106-5.623-.443-4.9,4.026-3.4,7.086-4.724-.953-3.127-5.624-.711-7.086-2.684-.175-3.463,3.194-3.382,5.127-4.724-.644-3.852,2.429-4.12,3.932-6.711-.953-2.067-4.59-1.436-5.113-3.932,2.134-3.127,5.221-9.784,10.24-6.308,2.241-1.812,3.8,0,5.5,1.57,1.342-1.745,2.953-.832,5.127-.389,2.617-3.4,8.952-6,6.711-11.811.134-1.57,1.637-1.785,1.584-3.543-2.885-2.241-3.221-7.019-7.489-7.878V50.036c-2.188-.711-1.839-.429-3.932.792-1.476-1.114-2.537-.268-3.932-1.181-.671,1.691-1.785,2.939-4.724,2.362-1.342,3.261-5.14,5.65-5.127,9.838,0,2.2,2.308,4.389.792,6.294-6.523-6.845-21.944.389-29.929-1.959,1.02-3.06,2.523-5.623,3.543-8.67,1.463-.389,3.221-2.094,1.973-3.932-5.288,1.8-5.154,9.019-10.63,10.629-2.134-2.389-4.509-3.06-7.086-5.516-.282-5.771-3.047-8.616-5.113-12.2-.859-1.49-.537-3.57-2.765-3.543a1.973,1.973,0,0,1-1.181,1.181c-.309,2.282,1.1,2.845.792,5.113-4.026,2.214-10.9-.6-15.354-2.751-.483,2.443.886,3.047.778,5.113a6.711,6.711,0,0,1-2.416.725c.939-8.227-4.416-11.556-1.49-19.474-7.489-1.919-9.757-9.824-15.6-13.636-.59,1.879-1.49,3.409-3.7,3.409-2.013-.523-1.852-3.557-4.456-3.409-1.007,4.026-4.926,5.113-8.912,3.409a24.735,24.735,0,0,1-11.139,12.79c3.865,4.026-.322,10.093-2.228,12.777,1.5,5.623,5.087,6.845,4.415,13.676,2.805.913,5.623,1.168,4.9,4.563l-1.933-.617c.6.322,1.221.6,1.866.886a11.038,11.038,0,0,1-.376,1.127,6.711,6.711,0,0,1,3.342,0l1.7.617a24.8,24.8,0,0,1,5.368,3.624,18,18,0,0,1,2.255-.483,17.144,17.144,0,0,1,2.013,1.342,27.26,27.26,0,0,0-7.476,8.267c-2.322-.174-2.9-2.08-5.905-1.57-.349,2.188,2.12,1.557,2.751,2.765-6.107,1.342-8.616-3.932-15.354-2.765-.094-.564-.644-.658-.792-1.181-.255-1.436.859-1.5.792-2.684a5.878,5.878,0,0,1-2.684-5.516c-2.792-1.342-5.167-2.979-5.516-6.711-1.933-.349-1.06,2.094-3.154,1.584-1.06-3.275-3.006-1.087-5.905-2.362-.456.591-.483,1.611-1.181,1.959-4.254-.966-4.268,2.3-6.71,3.154-2.684-.993-3.932-3.154-7.086-1.973.121,2.121,3.718.765,4.335,2.362-1.436,3.677-2.483,7.771-4.335,11.032a4.751,4.751,0,0,1,1.584,5.905c2.443,2.241,4.912,4.872,5.905,7.476,1.436.268,1.5-.846,2.684-.778a5.368,5.368,0,0,1,2.765,3.543c3.825-2.067,8.053-1.866,12.2-2.765.658-.523.134-2.228.792-2.684a9.892,9.892,0,0,0,3.14-.792c1.007-.5-.362-1.919.4-1.959,5.368.725,13.877-.067,18.1,3.543,1.235,4.228,2.134,8.428,0,12.589-.684.5-2.684-.3-4.335,0-1.007-.309-.658-1.959-1.959-1.959-6.885,1.248-11.636,4.644-13.783,10.63a36.063,36.063,0,0,1,.792,6.711c1.866,3.906,6.08,5.476,8.657,8.67.805-1.6,3.771-1.342,5.113-.4,4.429-2.255,8.777-4.6,10.24-9.838,5.905,0,6.093,5.717,9.838,7.878-1.06,5.878-2.872,11.032-4.321,16.535.161-.577,1.342-1.463,1.758-2.04a13.5,13.5,0,0,0,1.342-2.966,29.948,29.948,0,0,0,.94-3.583,29.094,29.094,0,0,1,.658-4.026c1.637-.47,2.751-1.436,4.322-1.973.993.98,2.684,1.342,2.765,3.154,0,1.476-1.45,1.45-1.584,2.684,4.577-.5,11.945-.926,11.421,6.308,2.255.685,1.49-1.664,3.154-1.584,3.731,2.684,4.563,13.931,2.362,17.716-2.362-2.926-2.04-7.569-6.711-7.073-5.127.537-5.8,9.824-1.235,11.448,3.3,1.181,6.8,2.818,8.724-1.221,4.161,3.664,1.53,12.576-2.375,14.964a6.535,6.535,0,0,0-2.577.926,2.04,2.04,0,0,0-.832,1.007c-.483,2.6,5.221,1.49,6.563,1.61,1.074,1.946,2.617,3.422,2.765,6.294-1.1,1.275-4.442,2.376-3.543,4.335,1.033-2.013,5.368-2.59,7.476-1.181a33.945,33.945,0,0,0,.792,3.932c2.832,1.06,5.087,3.61,8.657,2.765,1.02,1.208.537,3.919,1.973,4.724,2.268.174,1.57-2.617,3.932-2.362.926,1.181-.4,4.59,1.973,4.322,1.584-.51.872-3.315,1.959-4.322,3.3-.872,5.207,0,8.267,0,.47.591.5,1.611,1.181,1.96.242-.7-1.154-1.624,0-1.96,1.651,0,1.758,1.651,3.946,1.181,0-1.691-.792-2.886,0-4.335,7.556-.443,8.281-7.717,12.2-11.811,4.818-.872,8.053,1.933,11.019,1.57-1.342-.832-3.624-.819-4.321-2.362.832-1.047,2.872-1.476,1.959-3.141-2.5-.148-3.275,1.436-4.724,2.362-1.248-.846-3.758-.443-4.322-1.973-.456-2.939,1.342-3.664,2.362-5.113-.309-1.933-1.638-2.832-1.584-5.127.282-1.57,2.886-.792,2.765-2.684-.107-1.6-2.577-.846-3.543-1.57a2,2,0,0,1-.456-1.678c4.63-.966,7.65.2,11.314,2.027,1.557-6.711,7.073-8.9,11.69-12.079,4.509.255,10.321-3.758,14.414,1.449,3.946-2.161,9.6-2.389,10.737-8.053.98-.456,2.134.5,3.006-.671C415.775,142.4,413.815,141.809,414.124,140.937ZM388.866,144.4a4.442,4.442,0,0,1,2.684-2.926,6.709,6.709,0,0,0,.926,3.6A12.94,12.94,0,0,0,388.866,144.4Z" transform="translate(933.402 838.404)"/>
    <text id="F" class="cls-12" transform="translate(1252.221 961.619)"><tspan x="0" y="0">F</tspan></text>
    <path id="Trazado_16" data-name="Trazado 16" class="cls-13" d="M275.38,138.206c2.778.5,5.677.872,8.657,1.181C282.923,137.548,277.688,137.6,275.38,138.206Z" transform="translate(949.652 878.983)"/>
    <path id="Trazado_17" data-name="Trazado 17" class="cls-14" d="M239.852,143.266c-1.5-2.953-5.181-.644-5.5,1.57-.416,2.765,2.684,3.5,2.684,5.905,5.194,1.7,4.778-4.671,7.086-7.086-.2-.577-.577-.993-.792-1.57A4.2,4.2,0,0,0,239.852,143.266Z" transform="translate(935.602 880.365)"/>
    <path id="Trazado_18" data-name="Trazado 18" class="cls-15" d="M332.58,150.72c.094,2.241,4.026,2.443,5.113,2.362C337.009,151.27,334.62,151.176,332.58,150.72Z" transform="translate(969.219 883.393)"/>
    <path id="Trazado_19" data-name="Trazado 19" class="cls-9" d="M323.616,162.32a20.5,20.5,0,0,0-3.946-8.67A21.472,21.472,0,0,0,323.616,162.32Z" transform="translate(964.805 884.395)"/>
    <path id="Trazado_21" data-name="Trazado 21" class="cls-16" d="M276.006,136.066c.819-.711,5.838.846,6.711-1.181C280.261,134.872,275.6,134.657,276.006,136.066Z" transform="translate(949.859 877.969)"/>
  </g>
</svg>
