<svg xmlns="http://www.w3.org/2000/svg" viewBox="0 0 269.67 267.15"><defs><style>.cls-1{fill:#396cb4;}</style></defs><g id="Capa_2" data-name="Capa 2"><g id="Google"><path class="cls-1" d="M155.86,220.21c0-14,.16-28-.11-42-.07-4.1,1.24-5.07,5.1-4.92,7.65.29,15.32,0,23,.14,2.74,0,3.72-.92,4.1-3.62,1.4-10.06,2.88-20.11,4.7-30.09.77-4.25-.67-5.05-4.55-5-9.33.24-18.66,0-28,.12-3.08,0-4.48-.65-4.33-4.17.32-7.49,0-15,.25-22.48.45-11.84,7.24-18.84,19-19.67,5.31-.37,10.66-.29,16-.16,2.75.07,3.83-.71,3.77-3.63-.16-8.66-.06-17.33-.06-26,0-1.69.14-3.31-2.3-3.62-16.54-2.11-33.13-4.75-49.36,1.42-18.07,6.87-28.78,23.6-29,44.9-.11,9.66-.17,19.33.06,29,.09,3.59-1.12,4.53-4.54,4.45-8.66-.21-17.33,0-26-.15-2.8-.06-3.82.63-3.78,3.56q.22,15.74,0,31.48c0,3,1.15,3.66,3.84,3.62,8.83-.11,17.66.07,26.49-.11,3.07-.06,4,.94,4,4q-.15,43,0,85.95c0,4-1.38,4.23-4.73,3.61C54.53,256.77,10.82,211.25,1.74,156.2-9.4,88.69,34,19.09,106.19,3.17c78.53-17.3,155,38.17,162.83,118.27,6.75,69.11-39.92,132-107.65,145.33-4.42.87-5.74.21-5.63-4.58C156.07,248.2,155.86,234.21,155.86,220.21Z"/></g></g></svg>