<svg xmlns="http://www.w3.org/2000/svg" viewBox="0 0 225.6 230.44"><defs><style>.cls-1{fill:#d51027;}.cls-2{fill:#099939;}.cls-3{fill:#3f63ac;}.cls-4{fill:#edb212;}</style></defs><g id="Capa_2" data-name="Capa 2"><g id="Google"><path class="cls-1" d="M12.31,63.71C27.22,34.84,50,14.85,81.08,5.49,117.22-5.38,151.22-.22,182.21,21.91,185.27,24.09,188,26.67,191,29c.86.69,1,1.17.1,2Q175.83,45.86,160.7,60.74c-1.08,1.06-1.57.46-2.35-.22C144,48,127.06,42.8,108.39,45,80,48.35,60.81,64.18,50.11,90.53c-.25.62-.49,1.25-.74,1.87-.95.16-1.55-.5-2.18-1C36.07,82.92,25.07,74.28,14,65.71,13.34,65.18,12.46,64.73,12.31,63.71Z"/><path class="cls-2" d="M49.51,138.17c3.83,10.7,9.49,20.26,17.74,28.14Q89.36,187.43,120,185.8a69,69,0,0,0,35.32-11.39,4.08,4.08,0,0,1,2.35,1.21Q173,187.56,188.4,199.48c1.08.83,2.53,1.4,2.81,3a88.77,88.77,0,0,1-34.46,20.83c-47.81,15.21-90.18,6.41-125.89-29.76a98.84,98.84,0,0,1-18.55-26.77c.09-.95.88-1.35,1.51-1.84q16.4-12.66,32.76-25.34C47.44,138.94,48.21,138,49.51,138.17Z"/><path class="cls-3" d="M191.21,202.49l-35-27.17a11.87,11.87,0,0,1-1-.91,59.43,59.43,0,0,0,20.07-25.31,53.81,53.81,0,0,0,2.92-9.45c.53-2.55.39-2.7-2.17-2.7-19.42,0-38.84,0-58.26.05-2.13,0-2.77-.45-2.75-2.68.12-12.57.09-25.14,0-37.71,0-1.77.44-2.26,2.24-2.26q51.82.08,103.66,0c1.8,0,2.43.55,2.76,2.3a120.3,120.3,0,0,1,1.73,26.93,124.6,124.6,0,0,1-7.44,38.56,102.63,102.63,0,0,1-25.29,39.05C192.27,201.65,191.73,202.06,191.21,202.49Z"/><path class="cls-4" d="M49.51,138.17,18.19,162.29c-2,1.51-3.92,3-5.88,4.5A108.63,108.63,0,0,1,1.38,132.88a114,114,0,0,1,10.29-68c.2-.4.43-.79.64-1.19L42.42,87l6.95,5.37a81.44,81.44,0,0,0-3.69,21.21A74.26,74.26,0,0,0,49.51,138.17Z"/></g></g></svg>