<svg xmlns="http://www.w3.org/2000/svg" xmlns:xlink="http://www.w3.org/1999/xlink" width="255.057" height="173.146" viewBox="0 0 255.057 173.146">
  <defs>
    <style>
      .cls-1 {
        fill: url(#linear-gradient);
      }
    </style>
    <linearGradient id="linear-gradient" x1="0.147" y1="1.02" x2="0.853" y2="-0.02" gradientUnits="objectBoundingBox">
      <stop offset="0" stop-color="#812082"/>
      <stop offset="0" stop-color="#831f82"/>
      <stop offset="0.06" stop-color="#a5147c"/>
      <stop offset="0.12" stop-color="#c00b78"/>
      <stop offset="0.18" stop-color="#d30575"/>
      <stop offset="0.24" stop-color="#de0174"/>
      <stop offset="0.3" stop-color="#e20073"/>
      <stop offset="0.66" stop-color="#e95f32"/>
      <stop offset="1" stop-color="#e3312d"/>
    </linearGradient>
  </defs>
  <path id="Sustracción_1" data-name="Sustracción 1" class="cls-1" d="M-15489.266-2186.853h-168.414a43.043,43.043,0,0,1-16.862-3.4,43.185,43.185,0,0,1-13.771-9.285,43.2,43.2,0,0,1-9.283-13.77,43.052,43.052,0,0,1-3.4-16.861v-86.5a43.058,43.058,0,0,1,3.4-16.863,43.174,43.174,0,0,1,9.283-13.77,43.178,43.178,0,0,1,13.771-9.284,43.047,43.047,0,0,1,16.862-3.4h168.414a43.047,43.047,0,0,1,16.862,3.4,43.172,43.172,0,0,1,13.771,9.284,43.185,43.185,0,0,1,9.284,13.77,43.058,43.058,0,0,1,3.4,16.863v86.5a43.052,43.052,0,0,1-3.4,16.861,43.19,43.19,0,0,1-9.284,13.77,43.178,43.178,0,0,1-13.771,9.285A43.043,43.043,0,0,1-15489.266-2186.853Zm-104.673-117.259a5.353,5.353,0,0,0-2.822.8,5.338,5.338,0,0,0-2.55,4.524V-2248a5.347,5.347,0,0,0,2.581,4.464,5.365,5.365,0,0,0,2.79.78,5.335,5.335,0,0,0,2.364-.548l50.7-25.353a5.352,5.352,0,0,0,2.908-4.772,5.351,5.351,0,0,0-2.908-4.772l-50.7-25.365A5.411,5.411,0,0,0-15593.938-2304.112Z" transform="translate(15701.001 2360)"/>
</svg>
