<svg xmlns="http://www.w3.org/2000/svg" viewBox="0 0 291.24 356.95"><defs><style>.cls-1{fill:#1d1e1b;}</style></defs><g id="Capa_2" data-name="Capa 2"><g id="Google"><path class="cls-1" d="M0,192.93c.59-25.68,4.92-49.11,17.73-70.42A84.25,84.25,0,0,1,122.1,88c4.1,1.68,8.3,3.16,12.22,5.18,9.52,4.91,18.93,4.67,28.61.5,9.49-4.08,18.85-8.64,29.18-10.31,34.43-5.56,64.34,2.17,87.47,29.86,2,2.36,2.31,3.51-.47,5.76-17.06,13.83-29.06,31.06-33.53,52.87C240.42,197,247.52,218.87,264,238c7,8.17,15.61,14.46,24.88,19.82,1.56.9,3,1.45,2.13,3.92-11.22,32.42-27.76,61.4-54.25,83.91a45.72,45.72,0,0,1-19.5,10.09c-9.15,2.11-17.58-.74-26-3.44-6-1.93-11.89-4.47-17.89-6.57q-25.5-8.94-50,2.51c-7.76,3.62-15.56,7.16-24.21,8.31-14.14,1.89-25.36-3.93-35.29-13.17-15.93-14.82-27.38-32.95-37.6-51.9A220.79,220.79,0,0,1,1.37,211.59C.6,205,.38,198.33,0,192.93Z"/><path class="cls-1" d="M213.27,9.76c1.07,40.06-32,74.7-65.12,76.74-3.44.21-4.6-.23-5.17-4.08-5-33.83,26.88-77.09,65.13-82.29,4-.54,5.34.56,5.17,4.32C213.2,6.22,213.27,8,213.27,9.76Z"/></g></g></svg>