<svg xmlns="http://www.w3.org/2000/svg" xmlns:xlink="http://www.w3.org/1999/xlink" viewBox="0 0 382 370.24"><defs><style>.cls-1{fill:url(#Nueva_muestra_de_degradado_2);}.cls-2{fill:url(#Nueva_muestra_de_degradado_2-2);}.cls-3{fill:url(#Nueva_muestra_de_degradado_2-3);}.cls-4{fill:url(#Nueva_muestra_de_degradado_2-4);}</style><linearGradient id="Nueva_muestra_de_degradado_2" x1="88.52" y1="308.92" x2="340.8" y2="308.92" gradientUnits="userSpaceOnUse"><stop offset="0" stop-color="#812082"/><stop offset="0" stop-color="#831f82"/><stop offset="0.06" stop-color="#a5147c"/><stop offset="0.12" stop-color="#c00b78"/><stop offset="0.18" stop-color="#d30575"/><stop offset="0.24" stop-color="#de0174"/><stop offset="0.3" stop-color="#e20073"/><stop offset="0.66" stop-color="#e95f32"/><stop offset="1" stop-color="#e3312d"/></linearGradient><linearGradient id="Nueva_muestra_de_degradado_2-2" x1="0" y1="119.69" x2="376.13" y2="119.69" xlink:href="#Nueva_muestra_de_degradado_2"/><linearGradient id="Nueva_muestra_de_degradado_2-3" x1="343.97" y1="43.63" x2="374.02" y2="43.63" xlink:href="#Nueva_muestra_de_degradado_2"/><linearGradient id="Nueva_muestra_de_degradado_2-4" x1="335.98" y1="43.63" x2="382" y2="43.63" xlink:href="#Nueva_muestra_de_degradado_2"/></defs><g id="Capa_2" data-name="Capa 2"><g id="Google"><path class="cls-1" d="M323.13,324.56V311.35h12.16a5.51,5.51,0,0,0,0-11H105.82a6.26,6.26,0,0,1-5.77-8.73l15.57-36.32a5.51,5.51,0,0,0-10.13-4.34L89.93,287.25a17.28,17.28,0,0,0,15.89,24.1h6.07v13.21a23.17,23.17,0,1,0,11,0V311.35h189.2v13.21a23.18,23.18,0,1,0,11,0Zm-193.57,22.5a12.16,12.16,0,1,1-12.16-12.15A12.17,12.17,0,0,1,129.56,347.06Zm188.06,12.16a12.16,12.16,0,1,1,12.16-12.16A12.17,12.17,0,0,1,317.62,359.22Z"/><path class="cls-2" d="M374.92,78.62a5.49,5.49,0,0,0-3.8-2L76.08,49.8l-24-22.16L29.75,5.3A17.62,17.62,0,0,0,19.65.16,17.26,17.26,0,0,0,3.78,6.49,17,17,0,0,0,.15,15,17.23,17.23,0,0,0,5.06,29.51L37.45,61.9c.4.4.81.77,1.23,1.12L59.41,81.7l41.37,137a28.88,28.88,0,0,0,27.76,20.67c.73,0,1.46,0,2.19-.08L339,224.06a23.27,23.27,0,0,0,21.29-20.12l15.8-121.16A5.47,5.47,0,0,0,374.92,78.62ZM189.74,71.18l2.48,40.31-51.51-1.88L132.59,66ZM12.86,21.72a6.26,6.26,0,1,1,8.86-8.86L54,45.12a6.39,6.39,0,0,1,.6,8.47,6.29,6.29,0,0,1-9.34.52ZM80.7,61.28,121.19,65l8.24,44.24-50.77-1.85-9.6-31.79A11.11,11.11,0,0,1,80.7,61.28ZM97.79,170.69,82,118.5l49.47,1.81,9.21,49.43Zm32.13,57.61a17.93,17.93,0,0,1-18.59-12.78L101.1,181.64l41.65-.93,8.58,46Zm12.86-107.58,50.12,1.82,2.83,46-43.86,1Zm19.61,105.21-8.48-45.47,42.5-.94,2.7,43.72Zm86.68-6.34-39,2.85-2.66-43.17,42.73-1Zm1.39-52.29-43.7,1L204,123l47.62,1.73Zm1.43-53.64-48.6-1.77-2.45-39.7,52,4.72Zm50.18,102.05-42,3.07,1.09-40.7,44-1Zm4-49.65-44.58,1,1.12-42,46.62,1.7Zm4-50.27-47.21-1.72,1-36.16,48.94,4.44Zm39.24,86.72a12.2,12.2,0,0,1-11.17,10.56l-25,1.82,3.07-38L352.8,176Zm4.9-37.52-37.11.82,3.11-38.63L359,128.59Zm6.18-47.37-39.29-1.43,2.64-32.84,35.34,3.2a5.13,5.13,0,0,1,4.61,5.76Z"/><path class="cls-3" d="M361.39,58.65H356.6V46H344V41.24H356.6V28.6h4.79V41.24H374V46H361.39Zm-2.56-2.22h.33V43.79H371.8v-.33H359.16V30.82h-.33V43.46H346.19v.33h12.64Z"/><path class="cls-4" d="M359,66.64a23,23,0,1,1,23-23A23,23,0,0,1,359,66.64Zm0-43.8a20.79,20.79,0,1,0,20.79,20.79A20.81,20.81,0,0,0,359,22.84Z"/></g></g></svg>