<svg xmlns="http://www.w3.org/2000/svg" xmlns:xlink="http://www.w3.org/1999/xlink" viewBox="0 0 337.16 580.2"><defs><style>.cls-1{fill:url(#Nueva_muestra_de_degradado_2);}.cls-2,.cls-3,.cls-4{fill:none;stroke-miterlimit:10;stroke-width:9.78px;}.cls-2{stroke:url(#Nueva_muestra_de_degradado_2-2);}.cls-3{stroke:url(#Nueva_muestra_de_degradado_2-3);}.cls-4{stroke:url(#Nueva_muestra_de_degradado_2-4);}.cls-5{fill:url(#Nueva_muestra_de_degradado_2-5);}</style><linearGradient id="Nueva_muestra_de_degradado_2" x1="2.78" y1="267.21" x2="334.38" y2="267.21" gradientUnits="userSpaceOnUse"><stop offset="0" stop-color="#812082"/><stop offset="0" stop-color="#831f82"/><stop offset="0.06" stop-color="#a5147c"/><stop offset="0.12" stop-color="#c00b78"/><stop offset="0.18" stop-color="#d30575"/><stop offset="0.24" stop-color="#de0174"/><stop offset="0.3" stop-color="#e20073"/><stop offset="0.66" stop-color="#e95f32"/><stop offset="1" stop-color="#e3312d"/></linearGradient><linearGradient id="Nueva_muestra_de_degradado_2-2" x1="0" y1="507.92" x2="286.36" y2="507.92" xlink:href="#Nueva_muestra_de_degradado_2"/><linearGradient id="Nueva_muestra_de_degradado_2-3" x1="223.58" y1="516.1" x2="328.74" y2="516.1" xlink:href="#Nueva_muestra_de_degradado_2"/><linearGradient id="Nueva_muestra_de_degradado_2-4" x1="272.05" y1="524.96" x2="337.16" y2="524.96" xlink:href="#Nueva_muestra_de_degradado_2"/><linearGradient id="Nueva_muestra_de_degradado_2-5" x1="85.33" y1="179.53" x2="251.83" y2="179.53" xlink:href="#Nueva_muestra_de_degradado_2"/></defs><g id="Capa_2" data-name="Capa 2"><g id="Google"><path class="cls-1" d="M333.46,149.78q-.6-6.6-1.67-13C317.1,49.23,236.41-11.35,146.64,1.79,103.73,8.08,63.32,30.34,36.37,64.5-8.16,120.93-2,192.49,18.12,257.4A859.35,859.35,0,0,0,76.71,399.59c23.46,45,49,92.3,84.16,129.39,2.8,2.95,6.37,6,10.37,5.34,2.44-.43,4.4-2.23,6.12-4,16.89-17.56,29.44-41.49,42.35-62,14.11-22.47,27.55-45.36,40.06-68.76,24.9-46.61,46.16-95.32,61.08-146.07q3.56-12.1,6.53-24.36A247.16,247.16,0,0,0,333.46,149.78ZM218.92,247.44a100.39,100.39,0,0,1-45.36,12.82,101.52,101.52,0,0,1-55.7-13.55c-30.4-17.92-50-52.78-49.56-88.07v-1c1.07-44.91,33.73-83.33,76.75-94.58,62.2-16.28,124.79,32.45,124.69,97C269.7,195.38,249.58,230,218.92,247.44Z"/><path class="cls-2" d="M219,570.31c.18-23.27,8-44.44,22.09-62.89,12.37-16.25,33.61-28.06,39.34-48.67-29.27-11.29-68.6-18.21-111.88-18.21-90.4,0-163.69,30.17-163.69,67.38s73.29,67.39,163.69,67.39A381.27,381.27,0,0,0,219.29,572,5.15,5.15,0,0,1,219,570.31Z"/><path class="cls-3" d="M289.55,462.55c-5.9,19.35-23.61,31.81-36.84,46.06-15.46,16.66-23.73,39.17-23.9,61.7,0,.1,0,.19,0,.28a283,283,0,0,0,38.95-9.06l0-.21c-1-15.44,11.62-29.38,21.07-40.17a240.17,240.17,0,0,1,16.85-17.81c6.09-5.68,12.39-11.27,17-18.26C315.25,476.67,303.91,469,289.55,462.55Z"/><path class="cls-4" d="M328.58,493.66C320.17,505,308.3,513.82,299,524.32c-8,9-20.43,20.93-21.47,33.88,33.58-12.34,54.73-30.29,54.73-50.28A30.5,30.5,0,0,0,328.58,493.66Z"/><path class="cls-5" d="M246.62,142.39c0,45.84-34.94,83-78,83s-78-37.16-78-83a87.46,87.46,0,0,1,4.55-27.94,92.56,92.56,0,0,0-9.76,41.61c0,48.9,37.27,88.54,83.25,88.54s83.25-39.64,83.25-88.54a92.69,92.69,0,0,0-9.76-41.61A87.46,87.46,0,0,1,246.62,142.39Z"/></g></g></svg>