<svg xmlns="http://www.w3.org/2000/svg" width="26.04" height="20.832" viewBox="0 0 26.04 20.832">
  <path id="Icon_awesome-shoe-prints" data-name="Icon awesome-shoe-prints" d="M7.812,6.51h1.3V1.3h-1.3a2.6,2.6,0,1,0,0,5.208ZM0,16.926a2.6,2.6,0,0,0,2.6,2.6h1.3V14.322H2.6A2.6,2.6,0,0,0,0,16.926Zm13.73-5.208a8.321,8.321,0,0,0-4.261,1.3,6.218,6.218,0,0,1-4.261,1.3V19.53l2.341.65a16.627,16.627,0,0,0,3.268.612,14.154,14.154,0,0,0,3.97-.252c4.454-.957,6.045-3.076,6.045-4.916C20.832,13.02,17.407,11.718,13.73,11.718ZM19.994.293A14.138,14.138,0,0,0,16.024.04a16.656,16.656,0,0,0-3.268.612l-2.341.65V6.51a6.219,6.219,0,0,1,4.261,1.3,8.321,8.321,0,0,0,4.261,1.3c3.676,0,7.1-1.3,7.1-3.906,0-1.84-1.591-3.959-6.045-4.915Z" transform="translate(0 0)"/>
</svg>
