<svg xmlns="http://www.w3.org/2000/svg" width="26.04" height="26.041" viewBox="0 0 26.04 26.041">
  <path id="Icon_awesome-tools" data-name="Icon awesome-tools" d="M25.483,20.124l-5.955-5.955a3.776,3.776,0,0,0-4.343-.707L9.763,8.04V4.882L3.254,0,0,3.255l4.882,6.51H8.039l5.421,5.421a3.784,3.784,0,0,0,.707,4.343l5.955,5.955a1.891,1.891,0,0,0,2.68,0l2.68-2.68a1.9,1.9,0,0,0,0-2.68Zm-8.615-8.681a5.351,5.351,0,0,1,3.809,1.577l.987.987a7.2,7.2,0,0,0,2.227-1.5,7.314,7.314,0,0,0,1.927-6.952.609.609,0,0,0-1.022-.28L21.013,9.057,17.56,8.483,16.985,5.03l3.784-3.784a.614.614,0,0,0-.29-1.027,7.326,7.326,0,0,0-6.947,1.927,7.207,7.207,0,0,0-2.1,5.269l4.175,4.175a5.54,5.54,0,0,1,1.256-.147Zm-5.284,4.17L8.7,12.729.95,20.485a3.254,3.254,0,0,0,4.6,4.6L11.838,18.8a5.461,5.461,0,0,1-.254-3.189ZM3.254,24a1.221,1.221,0,1,1,1.221-1.221A1.224,1.224,0,0,1,3.254,24Z" transform="translate(0.004)"/>
</svg>
