<svg xmlns="http://www.w3.org/2000/svg" width="26.039" height="19.53" viewBox="0 0 26.039 19.53">
  <path id="Icon_awesome-car" data-name="Icon awesome-car" d="M25.429,10.2H22.384L21.537,8.08A5.667,5.667,0,0,0,16.249,4.5H9.79A5.669,5.669,0,0,0,4.5,8.08L3.655,10.2H.611a.61.61,0,0,0-.592.758l.305,1.221a.61.61,0,0,0,.592.462H1.937A3.232,3.232,0,0,0,.814,15.079V17.52a3.228,3.228,0,0,0,.814,2.132V22.4A1.628,1.628,0,0,0,3.255,24.03H4.882A1.628,1.628,0,0,0,6.51,22.4V20.775H19.53V22.4a1.628,1.628,0,0,0,1.627,1.627h1.627A1.628,1.628,0,0,0,24.412,22.4v-2.75a3.226,3.226,0,0,0,.814-2.132V15.079A3.233,3.233,0,0,0,24.1,12.637h1.021a.61.61,0,0,0,.592-.462l.305-1.221a.611.611,0,0,0-.592-.758ZM7.524,9.289A2.441,2.441,0,0,1,9.79,7.755h6.459a2.441,2.441,0,0,1,2.267,1.534l1.014,2.534H6.51L7.524,9.289ZM4.882,17.51a1.535,1.535,0,0,1-1.627-1.622,1.535,1.535,0,0,1,1.627-1.622A3.131,3.131,0,0,1,7.324,16.7C7.324,17.672,5.859,17.51,4.882,17.51Zm16.275,0c-.976,0-2.441.162-2.441-.811a3.131,3.131,0,0,1,2.441-2.434,1.535,1.535,0,0,1,1.627,1.622,1.535,1.535,0,0,1-1.627,1.622Z" transform="translate(0 -4.5)"/>
</svg>
