<svg xmlns="http://www.w3.org/2000/svg" width="26.04" height="24.412" viewBox="0 0 26.04 24.412">
  <path id="Icon_awesome-dog" data-name="Icon awesome-dog" d="M25.226,5.5H21.971l-.364-.728a1.627,1.627,0,0,0-1.456-.9H17.424L16.037,2.49a.814.814,0,0,0-1.389.575v7.621l6.51,2.325V11.2h1.627A3.255,3.255,0,0,0,26.04,7.946V6.319A.814.814,0,0,0,25.226,5.5Zm-5.7,2.441a.814.814,0,1,1,.814-.814A.814.814,0,0,1,19.53,7.946ZM4.882,12.015a1.63,1.63,0,0,1-1.627-1.627,1.627,1.627,0,1,0-3.255,0A4.874,4.874,0,0,0,3.255,14.97V25.848a.814.814,0,0,0,.814.814H7.324a.814.814,0,0,0,.814-.814v-5.7h8.137v5.7a.814.814,0,0,0,.814.814h3.255a.814.814,0,0,0,.814-.814V14.738l-7.626-2.723Z" transform="translate(0 -2.25)"/>
</svg>
