<svg xmlns="http://www.w3.org/2000/svg" width="264" height="264" viewBox="0 0 264 264">
  <path id="Icon_awesome-user-circle" data-name="Icon awesome-user-circle" d="M132,.562a132,132,0,1,0,132,132A131.977,131.977,0,0,0,132,.562Zm0,51.1A46.839,46.839,0,1,1,85.161,98.5,46.839,46.839,0,0,1,132,51.659Zm0,183.1a102,102,0,0,1-77.976-36.3,59.343,59.343,0,0,1,52.427-31.829,13.024,13.024,0,0,1,3.779.585A70.472,70.472,0,0,0,132,170.885a70.2,70.2,0,0,0,21.769-3.673,13.023,13.023,0,0,1,3.779-.585,59.343,59.343,0,0,1,52.427,31.829A102,102,0,0,1,132,234.756Z" transform="translate(0 -0.563)" fill="#fff"/>
</svg>
