<svg xmlns="http://www.w3.org/2000/svg" width="25.176" height="22.029" viewBox="0 0 25.176 22.029">
  <path id="Icon_awesome-heartbeat" data-name="Icon awesome-heartbeat" d="M15.744,12.663,13.3,17.551a.786.786,0,0,1-1.421-.03l-2.8-6.21L7.606,14.836H2.979l8.974,9.17a.876.876,0,0,0,1.264,0l8.978-9.17H16.831Zm7.548-8.354-.118-.123a6.441,6.441,0,0,0-9.214,0L12.587,5.593l-1.372-1.4A6.433,6.433,0,0,0,2,4.191l-.118.118a6.751,6.751,0,0,0-.359,8.954H6.559L8.324,9.025A.788.788,0,0,1,9.77,9l2.862,6.358,2.409-4.814a.786.786,0,0,1,1.406,0L17.8,13.263H23.65a6.751,6.751,0,0,0-.359-8.954Z" transform="translate(0.001 -2.246)"/>
</svg>
