<svg xmlns="http://www.w3.org/2000/svg" width="25.176" height="25.181" viewBox="0 0 25.176 25.181">
  <path id="Icon_awesome-volleyball-ball" data-name="Icon awesome-volleyball-ball" d="M11.9,12.515A14.5,14.5,0,0,0,10.75,7.15a16.542,16.542,0,0,0-9.152,11,12.639,12.639,0,0,0,2.888,4.117A16.947,16.947,0,0,1,11.9,12.515ZM10.029,5.693A14.427,14.427,0,0,0,7.115,2.1,12.558,12.558,0,0,0,.77,15.414a18.373,18.373,0,0,1,9.259-9.721Zm9.523,8.38A16.56,16.56,0,0,0,14.6.653a12.265,12.265,0,0,0-5.02.431A16.947,16.947,0,0,1,14.328,12.39a14.466,14.466,0,0,0,5.223,1.684Zm-6.33.482a14.534,14.534,0,0,0-4.071,3.685,16.549,16.549,0,0,0,14.086,2.426A12.545,12.545,0,0,0,25.379,16.1a17.06,17.06,0,0,1-4.106.528,17.02,17.02,0,0,1-8.051-2.076Zm-4.99,5.061A14.438,14.438,0,0,0,6.6,23.891a12.541,12.541,0,0,0,14.67-1.122A18.3,18.3,0,0,1,8.232,19.617Zm9.152-18.3a18.324,18.324,0,0,1,3.787,12.873,14.547,14.547,0,0,0,4.553-.721c0-.1.015-.2.015-.3A12.579,12.579,0,0,0,17.384,1.313Z" transform="translate(-0.563 -0.563)"/>
</svg>
