<svg xmlns="http://www.w3.org/2000/svg" width="63" height="41" viewBox="0 0 63 41">
  <g id="Grupo_37" data-name="Grupo 37" transform="translate(-463 -923)">
    <path id="Rectángulo_57" data-name="Rectángulo 57" d="M7,0H56a7,7,0,0,1,7,7V27a0,0,0,0,1,0,0H0a0,0,0,0,1,0,0V7A7,7,0,0,1,7,0Z" transform="translate(463 923)" fill="#ff0"/>
    <path id="Rectángulo_59" data-name="Rectángulo 59" d="M0,0H63a0,0,0,0,1,0,0V8a7,7,0,0,1-7,7H7A7,7,0,0,1,0,8V0A0,0,0,0,1,0,0Z" transform="translate(463 949)" fill="red"/>
    <rect id="Rectángulo_58" data-name="Rectángulo 58" width="63" height="13" transform="translate(463 939)" fill="#1802b2"/>
  </g>
</svg>
