<svg xmlns="http://www.w3.org/2000/svg" xmlns:xlink="http://www.w3.org/1999/xlink" width="996.021" height="285.335" viewBox="0 0 996.021 285.335">
  <defs>
    <linearGradient id="linear-gradient" x1="0.993" y1="0.745" x2="0.015" gradientUnits="objectBoundingBox">
      <stop offset="0" stop-color="#661470"/>
      <stop offset="0.022" stop-color="#76116d"/>
      <stop offset="0.075" stop-color="#980a69"/>
      <stop offset="0.129" stop-color="#b20665"/>
      <stop offset="0.184" stop-color="#c50263"/>
      <stop offset="0.241" stop-color="#d10061"/>
      <stop offset="0.302" stop-color="#d50061"/>
      <stop offset="0.661" stop-color="#e24722"/>
      <stop offset="1" stop-color="#d91820"/>
    </linearGradient>
  </defs>
  <g transform="translate(-847.188 -422.239)">
    <path id="Trazado_57" data-name="Trazado 57" d="M3980,1422.312h995.419v283.261s-100.332-142.065-381.326-201.207c-128.7-27.087-233.979-25.893-347.49-39.056C4112.193,1449.724,3980,1422.312,3980,1422.312Z" transform="translate(-3132.71 -999.573)" fill="url(#linear-gradient)"/>
    <path id="Trazado_57_-_Contorno" data-name="Trazado 57 - Contorno" d="M3980,1421.812h995.919v285.335l-.908-1.286c-.062-.089-6.424-9.032-20.052-23.1-8-8.26-16.911-16.645-26.475-24.921-11.954-10.344-24.973-20.547-38.694-30.324-34.928-24.887-74.566-47.2-117.812-66.325-54.06-23.9-113.944-42.86-177.988-56.339-84.751-17.838-160.039-23.458-232.848-28.893-37.293-2.784-75.856-5.663-114.6-10.155-30.664-3.556-63.763-8.029-98.378-13.3-27.691-4.213-56.409-8.941-85.355-14.052-49.287-8.7-82.582-15.589-82.913-15.657Zm994.919,1H3984.963c10.957,2.21,39.639,7.885,78.025,14.663,28.938,5.109,57.648,9.836,85.331,14.048,34.6,5.265,67.689,9.737,98.34,13.291,38.721,4.49,77.273,7.368,114.556,10.151,36.28,2.708,73.8,5.509,112.247,9.819,20.718,2.322,39.979,4.879,58.882,7.815,21.245,3.3,41.476,6.989,61.851,11.277,17.124,3.6,34.153,7.646,50.614,12.012,15.745,4.177,31.389,8.761,46.5,13.627a831.785,831.785,0,0,1,81.114,30.782c43.313,19.155,83.013,41.51,118,66.443,13.746,9.8,26.788,20.02,38.764,30.385,9.582,8.294,18.508,16.7,26.528,24.978a246.478,246.478,0,0,1,19.208,21.953Z" transform="translate(-3132.71 -999.573)" fill="#707070"/>
  </g>
</svg>
