<svg id="Icon_ionic-ios-camera" data-name="Icon ionic-ios-camera" xmlns="http://www.w3.org/2000/svg" width="25.176" height="18.882" viewBox="0 0 25.176 18.882">
  <path id="Trazado_59" data-name="Trazado 59" d="M21.5,19.063a3.77,3.77,0,1,1-3.77-3.77A3.77,3.77,0,0,1,21.5,19.063Z" transform="translate(-5.139 -8.376)"/>
  <path id="Trazado_60" data-name="Trazado 60" d="M27.677,11.022H24.1a1.064,1.064,0,0,1-.787-.354c-1.862-2.085-2.564-2.793-3.324-2.793H14.387c-.767,0-1.521.708-3.39,2.8a1.044,1.044,0,0,1-.78.347H9.948V10.5a.526.526,0,0,0-.525-.525h-1.7a.526.526,0,0,0-.525.525v.525H6.7a2.126,2.126,0,0,0-2.2,2.013V24.574a2.27,2.27,0,0,0,2.2,2.183h20.98a2.1,2.1,0,0,0,2-2.183V13.035A1.954,1.954,0,0,0,27.677,11.022ZM17.35,24.161a5.605,5.605,0,1,1,5.337-5.337A5.611,5.611,0,0,1,17.35,24.161Zm6.032-9.336a.852.852,0,1,1,.852-.852A.851.851,0,0,1,23.382,14.825Z" transform="translate(-4.5 -7.875)"/>
</svg>
