<svg xmlns="http://www.w3.org/2000/svg" width="24.167" height="29" viewBox="0 0 24.167 29">
  <path id="Icon_material-contacts" data-name="Icon material-contacts" d="M24.75,0H5.417V2.417H24.75ZM5.417,29H24.75V26.583H5.417ZM24.75,4.833H5.417A2.424,2.424,0,0,0,3,7.25v14.5a2.424,2.424,0,0,0,2.417,2.417H24.75a2.424,2.424,0,0,0,2.417-2.417V7.25A2.424,2.424,0,0,0,24.75,4.833ZM15.083,8.156a2.719,2.719,0,1,1-2.719,2.719A2.723,2.723,0,0,1,15.083,8.156Zm6.042,12.385H9.042V18.729c0-2.018,4.024-3.021,6.042-3.021s6.042,1,6.042,3.021Z" transform="translate(-3)"/>
</svg>
