<svg xmlns="http://www.w3.org/2000/svg" width="20.396" height="27.195" viewBox="0 0 20.396 27.195">
  <path id="Icon_awesome-file-alt" data-name="Icon awesome-file-alt" d="M11.9,7.224V0H1.275A1.272,1.272,0,0,0,0,1.275V25.92a1.272,1.272,0,0,0,1.275,1.275H19.121A1.272,1.272,0,0,0,20.4,25.92V8.5H13.172A1.278,1.278,0,0,1,11.9,7.224Zm3.4,12.535a.639.639,0,0,1-.637.637H5.736a.639.639,0,0,1-.637-.637v-.425a.639.639,0,0,1,.637-.637H14.66a.639.639,0,0,1,.637.637Zm0-3.4A.639.639,0,0,1,14.66,17H5.736a.639.639,0,0,1-.637-.637v-.425a.639.639,0,0,1,.637-.637H14.66a.639.639,0,0,1,.637.637Zm0-3.824v.425a.639.639,0,0,1-.637.637H5.736A.639.639,0,0,1,5.1,12.96v-.425a.639.639,0,0,1,.637-.637H14.66A.639.639,0,0,1,15.3,12.535Zm5.1-6.06V6.8H13.6V0h.324a1.274,1.274,0,0,1,.9.372l5.2,5.205A1.271,1.271,0,0,1,20.4,6.475Z"/>
</svg>
