<svg id="Capa_2" data-name="Capa 2" xmlns="http://www.w3.org/2000/svg" xmlns:xlink="http://www.w3.org/1999/xlink" width="15.083" height="15.083" viewBox="0 0 15.083 15.083">
  <defs>
    <style>
      .cls-1 {
        fill: url(#linear-gradient);
      }

      .cls-2 {
        fill: url(#linear-gradient-2);
      }
    </style>
    <linearGradient id="linear-gradient" y1="0.5" x2="1" y2="0.5" gradientUnits="objectBoundingBox">
      <stop offset="0" stop-color="#812082"/>
      <stop offset="0" stop-color="#831f82"/>
      <stop offset="0.06" stop-color="#a5147c"/>
      <stop offset="0.12" stop-color="#c00b78"/>
      <stop offset="0.18" stop-color="#d30575"/>
      <stop offset="0.24" stop-color="#de0174"/>
      <stop offset="0.3" stop-color="#e20073"/>
      <stop offset="0.66" stop-color="#e95f32"/>
      <stop offset="1" stop-color="#e3312d"/>
    </linearGradient>
    <linearGradient id="linear-gradient-2" x1="0" y1="0.5" x2="1" y2="0.5" xlink:href="#linear-gradient"/>
  </defs>
  <g id="Capa_1" data-name="Capa 1" transform="translate(0 0)">
    <path id="Trazado_52" data-name="Trazado 52" class="cls-1" d="M473.927,48.777H472.36v-4.14h-4.14V43.07h4.14V38.93h1.567v4.14h4.14v1.567h-4.14Zm-.838-.722h.108V43.91h4.143V43.8H473.2V39.669h-.108v4.14h-4.14v.111h4.14Z" transform="translate(-465.601 -36.311)"/>
    <path id="Trazado_53" data-name="Trazado 53" class="cls-2" d="M464.884,43.133a7.541,7.541,0,1,1,7.539-7.54A7.541,7.541,0,0,1,464.884,43.133Zm0-14.351A6.812,6.812,0,1,0,471.7,35.6a6.812,6.812,0,0,0-6.817-6.814Z" transform="translate(-457.34 -28.05)"/>
  </g>
</svg>
