<svg xmlns="http://www.w3.org/2000/svg" xmlns:xlink="http://www.w3.org/1999/xlink" viewBox="0 0 613.47 627.24"><defs><style>.cls-1{fill:url(#Nueva_muestra_de_degradado_2);}.cls-2,.cls-3{fill:#fff;}.cls-3{font-size:122.41px;font-family:ShowcardGothic-Reg, Showcard Gothic;}.cls-4{fill:url(#Nueva_muestra_de_degradado_2-2);}.cls-5{fill:url(#Nueva_muestra_de_degradado_2-3);}.cls-13,.cls-6,.cls-7,.cls-8,.cls-9{opacity:0.54;}.cls-6{fill:url(#Degradado_sin_nombre_2);}.cls-7{fill:url(#Degradado_sin_nombre_2-2);}.cls-8{fill:url(#Degradado_sin_nombre_2-3);}.cls-9{fill:url(#Degradado_sin_nombre_2-4);}.cls-10{fill:url(#Degradado_sin_nombre_2-5);}.cls-11{fill:url(#Degradado_sin_nombre_2-6);}.cls-12{fill:url(#Degradado_sin_nombre_2-7);}.cls-13{fill:url(#Degradado_sin_nombre_2-8);}.cls-14{fill:url(#Degradado_sin_nombre_2-9);}.cls-15{fill:url(#Degradado_sin_nombre_2-10);}.cls-16{fill:#e94e1b;}.cls-17{fill:url(#Nueva_muestra_de_degradado_2-4);}.cls-18{fill:url(#Nueva_muestra_de_degradado_2-5);}.cls-19{fill:url(#Nueva_muestra_de_degradado_2-6);}.cls-20{fill:url(#Nueva_muestra_de_degradado_2-7);}.cls-21{fill:url(#Nueva_muestra_de_degradado_2-8);}</style><linearGradient id="Nueva_muestra_de_degradado_2" x1="336.85" y1="538.96" x2="234.63" y2="161.26" gradientUnits="userSpaceOnUse"><stop offset="0" stop-color="#812082"/><stop offset="0" stop-color="#831f82"/><stop offset="0.06" stop-color="#a5147c"/><stop offset="0.12" stop-color="#c00b78"/><stop offset="0.18" stop-color="#d30575"/><stop offset="0.24" stop-color="#de0174"/><stop offset="0.3" stop-color="#e20073"/><stop offset="0.66" stop-color="#e95f32"/><stop offset="1" stop-color="#e3312d"/></linearGradient><linearGradient id="Nueva_muestra_de_degradado_2-2" x1="174.18" y1="83.29" x2="416.94" y2="83.29" xlink:href="#Nueva_muestra_de_degradado_2"/><linearGradient id="Nueva_muestra_de_degradado_2-3" x1="256.01" y1="95.92" x2="335.11" y2="95.92" xlink:href="#Nueva_muestra_de_degradado_2"/><linearGradient id="Degradado_sin_nombre_2" x1="-4406.23" y1="422.82" x2="-4309.36" y2="422.82" gradientTransform="matrix(0.95, -0.33, -0.33, -0.95, 4819.08, -593.75)" gradientUnits="userSpaceOnUse"><stop offset="0" stop-color="#ffef26"/><stop offset="0.02" stop-color="#ffea21"/><stop offset="0.1" stop-color="#fed70f"/><stop offset="0.19" stop-color="#fdcc04"/><stop offset="0.28" stop-color="#fdc800"/><stop offset="0.67" stop-color="#f18f34"/><stop offset="0.89" stop-color="#e95f32"/><stop offset="1" stop-color="#e3312d"/></linearGradient><linearGradient id="Degradado_sin_nombre_2-2" x1="-4410.79" y1="405.88" x2="-4312.89" y2="405.88" gradientTransform="matrix(0.95, -0.33, -0.33, -0.95, 4821.45, -628.03)" xlink:href="#Degradado_sin_nombre_2"/><linearGradient id="Degradado_sin_nombre_2-3" x1="-4385.94" y1="385.83" x2="-4331.34" y2="385.83" gradientTransform="matrix(0.95, -0.33, -0.33, -0.95, 4808.71, -665.99)" xlink:href="#Degradado_sin_nombre_2"/><linearGradient id="Degradado_sin_nombre_2-4" x1="-4182.32" y1="-503.92" x2="-4067.22" y2="-503.92" gradientTransform="matrix(-1.06, -0.28, -0.21, 0.97, -3984.54, -278.75)" xlink:href="#Degradado_sin_nombre_2"/><linearGradient id="Degradado_sin_nombre_2-5" x1="-4377.6" y1="384.93" x2="-4334.43" y2="384.93" gradientTransform="matrix(0.95, -0.33, -0.33, -0.95, 4803.31, -666.9)" xlink:href="#Degradado_sin_nombre_2"/><linearGradient id="Degradado_sin_nombre_2-6" x1="-4398.92" y1="404.15" x2="-4314.68" y2="404.15" gradientTransform="matrix(0.95, -0.33, -0.33, -0.95, 4811.08, -629.76)" xlink:href="#Degradado_sin_nombre_2"/><linearGradient id="Degradado_sin_nombre_2-7" x1="-4395.07" y1="421.16" x2="-4310.89" y2="421.16" gradientTransform="matrix(0.95, -0.33, -0.33, -0.95, 4809.17, -595.41)" xlink:href="#Degradado_sin_nombre_2"/><linearGradient id="Degradado_sin_nombre_2-8" x1="-4360.81" y1="433.23" x2="-4312.74" y2="433.23" gradientTransform="matrix(0.95, -0.33, -0.33, -0.95, 4781.57, -566.66)" xlink:href="#Degradado_sin_nombre_2"/><linearGradient id="Degradado_sin_nombre_2-9" x1="-4351.75" y1="432.12" x2="-4315.03" y2="432.12" gradientTransform="matrix(0.95, -0.33, -0.33, -0.95, 4774.62, -567.71)" xlink:href="#Degradado_sin_nombre_2"/><linearGradient id="Degradado_sin_nombre_2-10" x1="-4496.08" y1="-486.62" x2="-4379.34" y2="-486.62" gradientTransform="matrix(-0.96, -0.25, -0.19, 0.89, -3883.39, -314.56)" xlink:href="#Degradado_sin_nombre_2"/><linearGradient id="Nueva_muestra_de_degradado_2-4" x1="93.42" y1="614.19" x2="168.71" y2="538.91" xlink:href="#Nueva_muestra_de_degradado_2"/><linearGradient id="Nueva_muestra_de_degradado_2-5" x1="235.43" y1="614.36" x2="309.12" y2="540.66" xlink:href="#Nueva_muestra_de_degradado_2"/><linearGradient id="Nueva_muestra_de_degradado_2-6" x1="330" y1="609.2" x2="404.88" y2="534.32" xlink:href="#Nueva_muestra_de_degradado_2"/><linearGradient id="Nueva_muestra_de_degradado_2-7" x1="411.86" y1="602.62" x2="486.34" y2="528.15" xlink:href="#Nueva_muestra_de_degradado_2"/><linearGradient id="Nueva_muestra_de_degradado_2-8" x1="-3855.61" y1="-2274.12" x2="-3804.18" y2="-2274.12" gradientTransform="translate(-4213.81 18.2) rotate(156.54)" xlink:href="#Nueva_muestra_de_degradado_2"/></defs><g id="Capa_2" data-name="Capa 2"><g id="Google"><path class="cls-1" d="M520.77,435.23a7.91,7.91,0,0,1-4.92-10.06A7.83,7.83,0,0,1,519.4,421l-.43-4.06-1.58-.54a7.92,7.92,0,0,1-4.92-10.06,7.8,7.8,0,0,1,4.88-4.77l-.61-5.82a7.73,7.73,0,0,1-.69-6.6l-.39-3.69A25.7,25.7,0,0,0,511,397.89c-.51,5.36.25,10.82.57,16.17l.8,13.24c.31,5,.54,10,.91,15l.25,3.57a7.51,7.51,0,0,1-.17,3,5.09,5.09,0,0,1-2.43,2.72,9.67,9.67,0,0,1-12.28-2.33l-76.52-92.75a12.51,12.51,0,0,1,10.08-20.47l73.34,2.54a4.49,4.49,0,0,0,4.62-5l-14-133a27.74,27.74,0,0,0-27.59-24.84h-346a27.75,27.75,0,0,0-27.6,24.84L67,466.1a29.68,29.68,0,0,0,29.68,29.68H494.48a29.68,29.68,0,0,0,29.68-29.68S520.91,435.28,520.77,435.23Z"/><rect class="cls-2" x="34.08" y="415.71" width="60.27" height="14.85" rx="7.43"/><text class="cls-3" transform="translate(272.04 386.8)">E</text><rect class="cls-2" y="442.06" width="109.98" height="14.85" rx="7.43"/><rect class="cls-2" x="16.94" y="469.72" width="109.98" height="14.85" rx="7.43"/><path class="cls-4" d="M295.84,0h-.56c-95.69.3-121.06,100.43-121.1,153.42a13.31,13.31,0,0,0,13.46,13.14h0a13.3,13.3,0,0,0,13.47-13.13c0-5.19,1.16-127,94.44-127.16C388.46,26.4,390,148,390,153.44a13.32,13.32,0,0,0,13.47,13.13h0a13.32,13.32,0,0,0,13.47-13.14C416.9,100.44,391.53.31,295.84,0Z"/><path class="cls-5" d="M295.56,56.37a39.55,39.55,0,1,0,39.55,39.55A39.55,39.55,0,0,0,295.56,56.37Zm0,58.63a19.08,19.08,0,1,1,19.07-19.08A19.08,19.08,0,0,1,295.56,115Z"/><rect class="cls-6" x="509.72" y="414.9" width="101.52" height="15.83" rx="7.91" transform="translate(953.09 1004.85) rotate(-161.03)"/><rect class="cls-7" x="513.22" y="397.96" width="102.61" height="15.83" rx="7.91" transform="translate(966.47 973.21) rotate(-161.03)"/><rect class="cls-8" x="532.92" y="377.92" width="56.82" height="15.83" rx="7.91" transform="translate(966.77 933.17) rotate(-161.03)"/><path class="cls-9" d="M510.35,435.85l-2-32.34a29.54,29.54,0,0,1,13-26.32l27-18.25c5.73-3.87,3-12.8-4-13.11h0L431.7,341.9a7.32,7.32,0,0,0-5.93,12l71.76,86.93a7.86,7.86,0,0,0,.89.93C503.17,446.06,510.73,442.12,510.35,435.85Z"/><rect class="cls-10" x="536.21" y="379.03" width="44.97" height="11.79" rx="5.9" transform="translate(961.95 930.55) rotate(-161.03)"/><rect class="cls-11" x="515.31" y="397.78" width="88.34" height="12.74" rx="6.37" transform="translate(957.23 968.2) rotate(-161.03)"/><rect class="cls-12" x="511.49" y="415.31" width="88.34" height="11.71" rx="5.86" transform="translate(944.26 1000.07) rotate(-161.03)"/><rect class="cls-13" x="514.5" y="425.32" width="49.92" height="15.83" rx="7.91" transform="translate(908.81 1018.29) rotate(-161.03)"/><rect class="cls-14" x="517" y="426.12" width="38.14" height="12.01" rx="6.01" transform="translate(902.58 1015.03) rotate(-161.03)"/><path class="cls-15" d="M508.15,434.1,505.91,397a20.3,20.3,0,0,1,9-18.22l30.8-20.84c2.13-4.33-1.54-9.63-6.78-9.81l-103.36-3.58a6.22,6.22,0,0,0-5.13,10.41l65.82,79.77C499.58,438.75,506,438.43,508.15,434.1Z"/><path class="cls-16" d="M345.73,91.12c0,29.47-22.46,53.36-50.17,53.36s-50.17-23.89-50.17-53.36a56.53,56.53,0,0,1,2.92-18A59.57,59.57,0,0,0,242,99.91c0,31.44,24,56.92,53.52,56.92s53.52-25.48,53.52-56.92a59.58,59.58,0,0,0-6.28-26.75A56.25,56.25,0,0,1,345.73,91.12Z"/><path class="cls-17" d="M162.77,533l-2.57,37.84q-2.2-.36-9.56-1.25c-3.35-.32-7-.52-11-.6l-.89,11.41q6.57.18,21.45-.29-.64,2.2-2.09,8.24c-.56,2.43-1.05,5.24-1.49,8.43a84.46,84.46,0,0,0-8.67-1.07q-3.22-.18-9.56-.12l-.6,13.33q4.49-.06,16.5-.78a55.12,55.12,0,0,0,7.47-1.44q-.48,1.86-2.21,8.91-.84,3.64-2,9.21H104l-1.74-46.87Q101.82,561.84,100,533Z"/><path class="cls-18" d="M318.66,563.22a33.09,33.09,0,0,1-5.14,18.59,24.33,24.33,0,0,1-10.88,9.32,15.07,15.07,0,0,1,6.82,5.92,16.1,16.1,0,0,1,2.63,8.79q0,11.6-12.38,17-9.56,4.19-25.1,4.19a203,203,0,0,1-28.75-2.21q-.42-13.93-1.74-45.43-.88-16.92-2.69-46.39,11.37-2.21,28.76-2.21Q318.65,530.76,318.66,563.22Zm-26.3,39.63q0-6.93-9.92-6.94a18.7,18.7,0,0,0-2.09.12L280,610.68Q292.37,611.22,292.36,602.85Zm2-28.39a8,8,0,0,0-3.7-7.06,15.1,15.1,0,0,0-8.79-2.09l-.9,18Q294.34,583.78,294.33,574.46Z"/><path class="cls-19" d="M403.54,533l-1.38,38.68q-.59,16.56-.59,50.09a91.85,91.85,0,0,1-31.21,5.5q-19.61,0-29.82-7.83-8.67-6.64-12.26-20.69-2.08-8.07-3.94-29.52-1.8-19.85-2.21-36.23h38.55q-.3,7.89-.72,25.71-.18,9.92.12,28.15.06,13.86,2.39,18.71,2.46,5.15,9.81,5.14a11.17,11.17,0,0,0,4.66-1.2q0-12.32-.72-39.15-.6-13.44-2.21-37.36Z"/><path class="cls-20" d="M491.17,533l-11.24,20.81q-4.55,8.54-12.26,23.9-.71,8.37-1.85,23.73-.36,8.19-1.19,23.38H434q-.24-7.42-1.07-23.73-.48-6.16-2.21-23.38-3.12-6.39-10.41-20.74-4.71-8.72-13.74-24H450.7q1.08,3.88,3.76,12.26l5.74,16.14q2.28-5.5,6.16-16.26,1.32-4.25,3.41-12.14Z"/><path class="cls-21" d="M203.09,605a23.29,23.29,0,0,1-21.34-13.92h0a25.72,25.72,0,0,1,47.18-20.48,1.26,1.26,0,0,1-.66,1.68,1.23,1.23,0,0,1-1.67-.66,23.22,23.22,0,0,0-30.49-12A23.16,23.16,0,0,0,184.06,590h0a20.7,20.7,0,0,0,38.25-.65,20.52,20.52,0,0,0-.26-15.84h0a18.25,18.25,0,0,0-33.48,14.53h0a15.79,15.79,0,0,0,29-12.5h0a13.33,13.33,0,0,0-24.48,10.54h0a10.87,10.87,0,0,0,20-8.6h0a8.39,8.39,0,0,0-4.62-4.48,8.5,8.5,0,0,0-6.44.11,8.41,8.41,0,0,0-4.36,11.06h0a5.85,5.85,0,0,0,3.23,3.1,6,6,0,0,0,7.68-7.83h0a3.53,3.53,0,0,0-4.59-1.81,3.49,3.49,0,0,0-1.81,4.58h0a1.07,1.07,0,0,0,.54.49,1,1,0,0,0,1.32-.58,1,1,0,0,0,0-.79,1.26,1.26,0,0,1,.66-1.67,1.23,1.23,0,0,1,1.67.66,3.5,3.5,0,0,1,.06,2.73,3.57,3.57,0,0,1-6.6.12h0a6,6,0,0,1,11.07-4.81h0a8.47,8.47,0,0,1-4.42,11.17,8.27,8.27,0,0,1-6.49.11,8.37,8.37,0,0,1-4.67-4.51h0a11,11,0,0,1,20.09-8.73h0a13.41,13.41,0,0,1-24.58,10.75h0a15.88,15.88,0,0,1,29.1-12.7h0a18.33,18.33,0,0,1-33.61,14.66h0a20.79,20.79,0,0,1,38.15-16.55h0A23.25,23.25,0,0,1,203.09,605Z"/></g></g></svg>