<svg xmlns="http://www.w3.org/2000/svg" width="26.04" height="26.04" viewBox="0 0 26.04 26.04">
  <path id="Icon_awesome-music" data-name="Icon awesome-music" d="M26.039,1.628A1.626,1.626,0,0,0,23.923.076L7.649,4.882A1.627,1.627,0,0,0,6.51,6.433v13.3a7.035,7.035,0,0,0-1.627-.2C2.186,19.53,0,20.987,0,22.784s2.186,3.255,4.882,3.255,4.882-1.457,4.882-3.255V10.9l13.02-3.815v9.39a7.035,7.035,0,0,0-1.627-.2c-2.7,0-4.882,1.457-4.882,3.255s2.186,3.255,4.882,3.255,4.882-1.457,4.882-3.255V1.628Z" transform="translate(0 0.001)"/>
</svg>
