<svg xmlns="http://www.w3.org/2000/svg" width="25.177" height="15.103" viewBox="0 0 25.177 15.103">
  <path id="Icon_awesome-motorcycle" data-name="Icon awesome-motorcycle" d="M20.171,9.534a4.976,4.976,0,0,0-1.668.271L17.21,7.646h3.241a.942.942,0,0,0,.944-.944V5.444a.942.942,0,0,0-.944-.944H18.669a.944.944,0,0,0-.7.311l-1.475,1.64-.9-1.495a.95.95,0,0,0-.81-.456H11.641a.631.631,0,0,0-.629.629v.629a.631.631,0,0,0,.629.629h2.612l.755,1.259H8.962c-.7-.909-1.766-1.573-3.929-1.573H2.85a.958.958,0,0,0-.964.964.943.943,0,0,0,.944.924h2.2a2.083,2.083,0,0,1,1.88.975l-.444.806A5.034,5.034,0,1,0,9.91,15.827h3.312a.944.944,0,0,0,.944-.987,5.958,5.958,0,0,1,2.21-4.916l.492.818a5.035,5.035,0,1,0,3.3-1.207ZM5.033,17.715a3.146,3.146,0,0,1,0-6.293,2.926,2.926,0,0,1,.492.039L3.893,14.427a.945.945,0,0,0,.826,1.4h3.2A3.155,3.155,0,0,1,5.033,17.715Zm18.245-2.973a3.147,3.147,0,0,1-6.289-.173,3.121,3.121,0,0,1,.869-2.167L19.8,15.642a.632.632,0,0,0,.865.216l.539-.323a.632.632,0,0,0,.216-.865l-1.911-3.182a3.012,3.012,0,0,1,.625-.063A3.146,3.146,0,0,1,23.278,14.741Z" transform="translate(0.002 -4.5)"/>
</svg>
