<svg xmlns="http://www.w3.org/2000/svg" width="32.433" height="28.823" viewBox="0 0 32.433 28.823">
  <path id="Icon_awesome-edit" data-name="Icon awesome-edit" d="M22.669,4.686l5.079,5.079a.551.551,0,0,1,0,.777l-12.3,12.3-5.225.58a1.1,1.1,0,0,1-1.211-1.211l.58-5.225,12.3-12.3A.551.551,0,0,1,22.669,4.686ZM31.791,3.4,29.043.649a2.2,2.2,0,0,0-3.108,0L23.942,2.642a.551.551,0,0,0,0,.777L29.02,8.5a.551.551,0,0,0,.777,0L31.791,6.5a2.2,2.2,0,0,0,0-3.108Zm-10.169,16.1v5.732H3.6V7.209H16.543a.692.692,0,0,0,.479-.2l2.252-2.252A.676.676,0,0,0,18.8,3.605H2.7A2.7,2.7,0,0,0,0,6.308v19.82a2.7,2.7,0,0,0,2.7,2.7h19.82a2.7,2.7,0,0,0,2.7-2.7V17.242a.677.677,0,0,0-1.154-.479l-2.252,2.252A.692.692,0,0,0,21.622,19.495Z" transform="translate(0 -0.007)"/>
</svg>
