<svg xmlns="http://www.w3.org/2000/svg" width="24.203" height="27.661" viewBox="0 0 24.203 27.661">
  <path id="Icon_awesome-database" data-name="Icon awesome-database" d="M24.2,3.952v2.47c0,2.176-5.42,3.952-12.1,3.952S0,8.6,0,6.421V3.952C0,1.775,5.42,0,12.1,0S24.2,1.775,24.2,3.952Zm0,5.557v5.557c0,2.176-5.42,3.952-12.1,3.952S0,17.242,0,15.065V9.508c2.6,1.791,7.359,2.624,12.1,2.624S21.6,11.3,24.2,9.508Zm0,8.644v5.557c0,2.176-5.42,3.952-12.1,3.952S0,25.886,0,23.709V18.152c2.6,1.791,7.359,2.624,12.1,2.624S21.6,19.943,24.2,18.152Z"/>
</svg>
