<svg xmlns="http://www.w3.org/2000/svg" width="25.176" height="23.384" viewBox="0 0 25.176 23.384">
  <path id="Icon_ionic-ios-shirt" data-name="Icon ionic-ios-shirt" d="M28.586,11.667a.242.242,0,0,0-.012-.323,55.584,55.584,0,0,0-5.426-5.1C21.9,5.353,20.682,4.5,19.342,4.5s-1.34.487-3.288.487S14.1,4.5,12.765,4.5s-2.558.853-3.806,1.748a55.584,55.584,0,0,0-5.426,5.1.242.242,0,0,0-.012.323l3.757,3.9a.244.244,0,0,0,.432-.152V12.678a.564.564,0,0,1,.463-.56.548.548,0,0,1,.633.542V27.4a.489.489,0,0,0,.487.487H22.813A.489.489,0,0,0,23.3,27.4V12.678a.564.564,0,0,1,.463-.56.548.548,0,0,1,.633.542v2.753a.243.243,0,0,0,.432.152ZM16.054,9.311c-1.827,0-3.288-.773-3.288-2.192,0-1.827,1.462-.652,3.288-.652s3.288-1.175,3.288.652C19.342,8.537,17.868,9.311,16.054,9.311Z" transform="translate(-3.465 -4.5)"/>
</svg>
