<svg xmlns="http://www.w3.org/2000/svg" width="15.479" height="30.971" viewBox="0 0 15.479 30.971">
  <path id="Icon_ionic-ios-phone-portrait" data-name="Icon ionic-ios-phone-portrait" d="M23.378,2.25H12.413a2.275,2.275,0,0,0-2.288,2.274V30.864a2.342,2.342,0,0,0,2.288,2.357H23.371A2.3,2.3,0,0,0,25.6,30.864V4.524A2.218,2.218,0,0,0,23.378,2.25ZM16.831,3.84H18.9a.277.277,0,0,1,0,.553H16.831a.277.277,0,1,1,0-.553ZM17.9,32.184a1.2,1.2,0,1,1,1.2-1.2A1.2,1.2,0,0,1,17.9,32.184ZM24.366,28.8h-13a.139.139,0,0,1-.138-.138V5.914a.139.139,0,0,1,.138-.138h13a.139.139,0,0,1,.138.138V28.659A.139.139,0,0,1,24.366,28.8Z" transform="translate(-10.125 -2.25)"/>
</svg>
