<svg xmlns="http://www.w3.org/2000/svg" width="29.25" height="29.25" viewBox="0 0 29.25 29.25">
  <path id="Icon_ionic-md-help-circle" data-name="Icon ionic-md-help-circle" d="M18,3.375A14.625,14.625,0,1,0,32.625,18,14.632,14.632,0,0,0,18,3.375Zm1.477,23.414H16.523V23.836h2.953Zm-.014-4.43H16.538c0-4.711,4.387-4.373,4.387-7.3A2.938,2.938,0,0,0,18,12.129a2.967,2.967,0,0,0-2.925,2.918H12.15a5.85,5.85,0,0,1,11.7.007C23.85,18.71,19.462,19.125,19.462,22.359Z" transform="translate(-3.375 -3.375)"/>
</svg>
