<svg id="Icon_ionic-logo-game-controller-b" data-name="Icon ionic-logo-game-controller-b" xmlns="http://www.w3.org/2000/svg" width="26.039" height="18.591" viewBox="0 0 26.039 18.591">
  <path id="Trazado_61" data-name="Trazado 61" d="M9.264,14.386a1.127,1.127,0,1,0,1.122,1.127A1.124,1.124,0,0,0,9.264,14.386Z" transform="translate(-3.269 -8.08)"/>
  <path id="Trazado_62" data-name="Trazado 62" d="M27.489,15.637c-1.232-5.143-2.534-7.875-5.143-8.648a5.184,5.184,0,0,0-1.494-.232c-1.6,0-2.726.854-5.585.854s-3.981-.854-5.585-.854a5.126,5.126,0,0,0-1.494.232c-2.609.773-3.911,3.51-5.143,8.648s-1.005,8.857.447,9.548a1.7,1.7,0,0,0,.726.163c1.261,0,2.621-1.383,3.934-3.022,1.494-1.866,1.866-1.918,6.41-1.918h1.412c4.539,0,4.917.046,6.41,1.918,1.308,1.639,2.673,3.022,3.934,3.022a1.714,1.714,0,0,0,.726-.163C28.495,24.488,28.715,20.775,27.489,15.637Zm-19.242.854a2.3,2.3,0,1,1,2.278-2.3A2.294,2.294,0,0,1,8.247,16.491ZM18.3,15.358a1.168,1.168,0,1,1,1.168-1.168A1.168,1.168,0,0,1,18.3,15.358Zm2.551,2.551a1.165,1.165,0,1,1,1.168-1.162A1.167,1.167,0,0,1,20.847,17.909Zm0-5.1a1.168,1.168,0,1,1,1.168-1.168A1.168,1.168,0,0,1,20.847,12.807ZM23.4,15.358a1.168,1.168,0,1,1,1.168-1.168A1.168,1.168,0,0,1,23.4,15.358Z" transform="translate(-2.247 -6.757)"/>
</svg>
