<svg xmlns="http://www.w3.org/2000/svg" xmlns:xlink="http://www.w3.org/1999/xlink" width="13.208" height="13.208" viewBox="0 0 13.208 13.208">
  <defs>
    <linearGradient id="linear-gradient" x1="0.5" x2="0.5" y2="1" gradientUnits="objectBoundingBox">
      <stop offset="0" stop-color="#dc0a6c"/>
      <stop offset="0.569" stop-color="#e7b920" stop-opacity="0.988"/>
      <stop offset="1" stop-color="#ff4e00"/>
    </linearGradient>
  </defs>
  <path id="Icon_awesome-link" data-name="Icon awesome-link" d="M8.426,4.783a3.919,3.919,0,0,1,.009,5.536l-.009.01L6.692,12.061A3.921,3.921,0,0,1,1.147,6.516L2.1,5.559a.412.412,0,0,1,.7.274,4.754,4.754,0,0,0,.25,1.36.415.415,0,0,1-.1.429l-.338.338A1.857,1.857,0,1,0,5.233,10.6L6.966,8.869a1.857,1.857,0,0,0,0-2.627A1.932,1.932,0,0,0,6.7,6.021.414.414,0,0,1,6.52,5.7a1.028,1.028,0,0,1,.3-.769l.543-.543A.414.414,0,0,1,7.9,4.339a3.934,3.934,0,0,1,.529.444Zm3.636-3.636a3.926,3.926,0,0,0-5.545,0L4.782,2.88l-.009.01a3.922,3.922,0,0,0,.539,5.979.414.414,0,0,0,.531-.045l.543-.543a1.028,1.028,0,0,0,.3-.769.414.414,0,0,0-.179-.325,1.933,1.933,0,0,1-.267-.221,1.857,1.857,0,0,1,0-2.627L7.975,2.606a1.857,1.857,0,1,1,2.61,2.643l-.338.338a.415.415,0,0,0-.1.429,4.754,4.754,0,0,1,.25,1.36.412.412,0,0,0,.7.274l.957-.957a3.925,3.925,0,0,0,0-5.545Z" transform="translate(0 0)" fill="url(#linear-gradient)"/>
</svg>
