<svg xmlns="http://www.w3.org/2000/svg" width="25.176" height="36.354" viewBox="0 0 25.176 36.354">
  <path id="Icon_map-beauty-salon" data-name="Icon map-beauty-salon" d="M26.127,5.01H20.863a.706.706,0,0,0,0,1.413h5.265v.725H20.863a.706.706,0,0,0,0,1.413h5.265V9.3H20.863a.706.706,0,0,0,0,1.413h5.265v.706H20.863a.715.715,0,0,0,0,1.429h5.265v.707H20.863a.706.706,0,0,0,0,1.413h5.265v.706H20.863a.707.707,0,0,0,0,1.413h5.265v.723H20.863a.706.706,0,0,0,0,1.413h5.265v.7H20.863a.707.707,0,0,0,0,1.413h5.265V35.094a1.6,1.6,0,0,0,3.2,0V2.909A2.2,2.2,0,0,0,27.234.737H20.863a.706.706,0,0,0,0,1.413l5.265.017v.7H20.863a.707.707,0,0,0,0,1.413h5.265V5.01ZM20.5,29.393c0-2.446-2.539-5.077-5.568-3.373V16.663L12.973,1.231a.576.576,0,0,0-.62-.511c-.24.007-.721.1-.773.511L9.631,16.663V26.02c-3.03-1.7-5.483.944-5.484,3.354a3.842,3.842,0,0,0,3.886,3.9,3.951,3.951,0,0,0,3.87-3.9V19.655h.757v9.719A3.825,3.825,0,0,0,16.2,33.24a5.384,5.384,0,0,0,1.085,3.549.9.9,0,0,0,1.454-1.04,3.346,3.346,0,0,1-.477-2.883A3.808,3.808,0,0,0,20.5,29.393ZM8.119,31.317a1.926,1.926,0,1,1,1.912-1.925,1.926,1.926,0,0,1-1.912,1.925Zm6.492-1.925a1.913,1.913,0,1,1,1.913,1.925,1.934,1.934,0,0,1-1.913-1.925Z" transform="translate(-4.146 -0.72)"/>
</svg>
