<svg xmlns="http://www.w3.org/2000/svg" xmlns:xlink="http://www.w3.org/1999/xlink" width="30" height="30" viewBox="0 0 30 30">
  <defs>
    <linearGradient id="linear-gradient" x1="0.5" x2="0.5" y2="1" gradientUnits="objectBoundingBox">
      <stop offset="0" stop-color="#661470"/>
      <stop offset="0.022" stop-color="#76116d"/>
      <stop offset="0.075" stop-color="#980a69"/>
      <stop offset="0.129" stop-color="#b20665"/>
      <stop offset="0.184" stop-color="#c50263"/>
      <stop offset="0.241" stop-color="#d10061"/>
      <stop offset="0.302" stop-color="#d50061"/>
      <stop offset="0.661" stop-color="#e24722"/>
      <stop offset="1" stop-color="#d91820"/>
    </linearGradient>
  </defs>
  <path id="Icon_material-local-offer" data-name="Icon material-local-offer" d="M32.115,17.37l-13.5-13.5A2.981,2.981,0,0,0,16.5,3H6A3.009,3.009,0,0,0,3,6V16.5a2.993,2.993,0,0,0,.885,2.13l13.5,13.5A2.981,2.981,0,0,0,19.5,33a2.933,2.933,0,0,0,2.115-.885l10.5-10.5A2.933,2.933,0,0,0,33,19.5a3.03,3.03,0,0,0-.885-2.13ZM8.25,10.5A2.25,2.25,0,1,1,10.5,8.25,2.247,2.247,0,0,1,8.25,10.5Z" transform="translate(-3 -3)" fill="url(#linear-gradient)"/>
</svg>
