<svg xmlns="http://www.w3.org/2000/svg" width="26.04" height="18.445" viewBox="0 0 26.04 18.445">
  <path id="Icon_material-laptop-mac" data-name="Icon material-laptop-mac" d="M21.7,20.775a2.167,2.167,0,0,0,2.159-2.17L23.87,6.67A2.176,2.176,0,0,0,21.7,4.5H4.34A2.176,2.176,0,0,0,2.17,6.67V18.6a2.176,2.176,0,0,0,2.17,2.17H0a2.176,2.176,0,0,0,2.17,2.17h21.7a2.176,2.176,0,0,0,2.17-2.17ZM4.34,6.67H21.7V18.6H4.34Zm8.68,15.19A1.085,1.085,0,1,1,14.1,20.775,1.088,1.088,0,0,1,13.02,21.86Z" transform="translate(0 -4.5)"/>
</svg>
