<svg id="Capa_2" data-name="Capa 2" xmlns="http://www.w3.org/2000/svg" xmlns:xlink="http://www.w3.org/1999/xlink" width="38.187" height="37.589" viewBox="0 0 38.187 37.589">
  <defs>
    <style>
      .cls-1 {
        fill: url(#linear-gradient);
      }

      .cls-2 {
        fill: url(#linear-gradient-2);
      }
    </style>
    <linearGradient id="linear-gradient" y1="0.5" x2="1" y2="0.5" gradientUnits="objectBoundingBox">
      <stop offset="0" stop-color="#812082"/>
      <stop offset="0" stop-color="#831f82"/>
      <stop offset="0.06" stop-color="#a5147c"/>
      <stop offset="0.12" stop-color="#c00b78"/>
      <stop offset="0.18" stop-color="#d30575"/>
      <stop offset="0.24" stop-color="#de0174"/>
      <stop offset="0.3" stop-color="#e20073"/>
      <stop offset="0.66" stop-color="#e95f32"/>
      <stop offset="1" stop-color="#e3312d"/>
    </linearGradient>
    <linearGradient id="linear-gradient-2" x1="0" y1="0.5" x2="1" y2="0.5" xlink:href="#linear-gradient"/>
  </defs>
  <g id="Capa_1" data-name="Capa 1" transform="translate(0 0)">
    <path id="Trazado_48" data-name="Trazado 48" class="cls-1" d="M144.31,344.836v-1.342h1.234a.559.559,0,0,0,0-1.119h-23.3a.636.636,0,0,1-.585-.887l1.58-3.686a.559.559,0,1,0-1.028-.441l-1.577,3.686a1.754,1.754,0,0,0,1.61,2.448h.617v1.342a2.352,2.352,0,1,0,1.119,0v-1.342h19.21v1.342a2.353,2.353,0,1,0,1.119,0Zm-19.652,2.285a1.234,1.234,0,1,1-1.234-1.234A1.234,1.234,0,0,1,124.659,347.121Zm19.092,1.234a1.234,1.234,0,1,1,1.234-1.234,1.234,1.234,0,0,1-1.234,1.234Z" transform="translate(-111.506 -311.887)"/>
    <path id="Trazado_49" data-name="Trazado 49" class="cls-2" d="M38.048,7.977a.56.56,0,0,0-.386-.207L7.711,5.052,5.274,2.8,3.007.535A1.8,1.8,0,0,0,1.982.013,1.753,1.753,0,0,0,.371.656,1.731,1.731,0,0,0,0,1.517,1.75,1.75,0,0,0,.5,2.993L3.79,6.281q.06.06.125.114l2.1,1.9L10.22,22.2a2.932,2.932,0,0,0,2.818,2.1,2.04,2.04,0,0,0,.224-.008L34.4,22.743A2.36,2.36,0,0,0,36.563,20.7l1.6-12.3a.56.56,0,0,0-.12-.424Zm-18.8-.754.252,4.093-5.229-.191L13.447,6.7ZM1.292,2.2a.637.637,0,0,1,.9-.9L5.467,4.577a.647.647,0,0,1,.06.859.637.637,0,0,1-.947.054ZM8.18,6.218l4.109.373.837,4.492-5.153-.188L7,7.668A1.128,1.128,0,0,1,8.18,6.218ZM9.914,17.325l-1.6-5.3,5.022.18.935,5.018Zm3.262,5.849a1.82,1.82,0,0,1-1.887-1.3l-1.039-3.44,4.229-.094.871,4.673Zm1.306-10.923,5.088.186.288,4.667-4.453.1Zm1.991,10.681-.861-4.616,4.314-.1.271,4.439Zm8.8-.644-3.956.289-.271-4.384,4.338-.1Zm.142-5.309-4.437.1-.283-4.6,4.835.176Zm.145-5.444-4.934-.18-.248-4.027,5.282.479ZM30.653,21.9l-4.26.312.11-4.132,4.465-.1Zm.406-5.04-4.522.1L26.65,12.7l4.734.172Zm.411-5.1-4.793-.175.1-3.671,4.968.447Zm3.983,8.8a1.238,1.238,0,0,1-1.134,1.068l-2.536.186.311-3.862,3.71-.082Zm.5-3.809-3.766.084.315-3.922,3.933.139Zm.627-4.81-3.988-.145.268-3.334,3.588.326a.522.522,0,0,1,.468.584Z" transform="translate(0.014 0.004)"/>
  </g>
</svg>
